<?xml version="1.0" encoding="UTF-8" standalone="no"?>
<!-- Created with Inkscape (http://www.inkscape.org/) -->

<svg
   xmlns:dc="http://purl.org/dc/elements/1.1/"
   xmlns:cc="http://creativecommons.org/ns#"
   xmlns:rdf="http://www.w3.org/1999/02/22-rdf-syntax-ns#"
   xmlns:svg="http://www.w3.org/2000/svg"
   xmlns="http://www.w3.org/2000/svg"
   xmlns:sodipodi="http://sodipodi.sourceforge.net/DTD/sodipodi-0.dtd"
   xmlns:inkscape="http://www.inkscape.org/namespaces/inkscape"
   width="500mm"
   height="300mm"
   viewBox="0 0 1771.6535 1062.9921"
   id="svg4244"
   version="1.1"
   inkscape:version="0.91 r13725"
   sodipodi:docname="sonde-2dec2019-kerf_0_17v01.svg">
  <sodipodi:namedview
     id="base"
     pagecolor="#ffffff"
     bordercolor="#666666"
     borderopacity="1.0"
     inkscape:pageopacity="0.0"
     inkscape:pageshadow="2"
     inkscape:zoom="0.34595752"
     inkscape:cx="740.16987"
     inkscape:cy="546.25697"
     inkscape:document-units="px"
     inkscape:current-layer="layer1"
     showgrid="true"
     inkscape:window-width="1280"
     inkscape:window-height="714"
     inkscape:window-x="0"
     inkscape:window-y="1"
     inkscape:window-maximized="1"
     inkscape:snap-grids="false"
     inkscape:snap-to-guides="false">
    <inkscape:grid
       type="xygrid"
       id="grid4814" />
  </sodipodi:namedview>
  <defs
     id="defs4246" />
  <metadata
     id="metadata4249">
    <rdf:RDF>
      <cc:Work
         rdf:about="">
        <dc:format>image/svg+xml</dc:format>
        <dc:type
           rdf:resource="http://purl.org/dc/dcmitype/StillImage" />
        <dc:title></dc:title>
      </cc:Work>
    </rdf:RDF>
  </metadata>
  <g
     id="layer1"
     inkscape:groupmode="layer"
     inkscape:label="Calque 1"
     transform="translate(0,10.629876)">
    <flowRoot
       xml:space="preserve"
       id="flowRoot4864"
       style="font-style:normal;font-weight:normal;line-height:0.01%;font-family:sans-serif;letter-spacing:0px;word-spacing:0px;fill:#000000;fill-opacity:1;stroke:none;stroke-width:1px;stroke-linecap:butt;stroke-linejoin:miter;stroke-opacity:1"><flowRegion
         id="flowRegion4866"><rect
           id="rect4868"
           width="51.200001"
           height="43.154285"
           x="-137.50858"
           y="377.98505" /></flowRegion><flowPara
         id="flowPara4870"
         style="font-size:40px;line-height:1.25">ONo</flowPara></flowRoot>    <flowRoot
       xml:space="preserve"
       id="flowRoot5959"
       style="font-style:normal;font-weight:normal;line-height:0.01%;font-family:sans-serif;letter-spacing:0px;word-spacing:0px;fill:#000000;fill-opacity:1;stroke:#000000;stroke-width:0.08858268;stroke-linecap:butt;stroke-linejoin:miter;stroke-miterlimit:4;stroke-dasharray:none;stroke-opacity:1"><flowRegion
         id="flowRegion5961"><rect
           id="rect5963"
           width="473.75345"
           height="105.50842"
           x="-119.98996"
           y="187.60695"
           style="stroke:#000000;stroke-width:0.08858268;stroke-miterlimit:4;stroke-dasharray:none;stroke-opacity:1" /></flowRegion><flowPara
         id="flowPara5965"
         style="font-size:40px;line-height:1.25;stroke:#000000;stroke-width:0.08858268;stroke-miterlimit:4;stroke-dasharray:none;stroke-opacity:1"> </flowPara></flowRoot>    <text
       sodipodi:linespacing="125%"
       id="text5252"
       y="247.06075"
       x="923.84833"
       style="font-style:normal;font-weight:normal;font-size:40px;line-height:125%;font-family:sans-serif;letter-spacing:0px;word-spacing:0px;fill:#000000;fill-opacity:1;stroke:none;stroke-width:1px;stroke-linecap:butt;stroke-linejoin:miter;stroke-opacity:1"
       xml:space="preserve"><tspan
         y="247.06075"
         x="923.84833"
         id="tspan5254"
         sodipodi:role="line" /></text>
    <g
       id="g6245"
       transform="translate(-540.5288,-121.40219)">
      <text
         sodipodi:linespacing="0%"
         xml:space="preserve"
         style="font-style:normal;font-weight:normal;line-height:0%;font-family:sans-serif;letter-spacing:0px;word-spacing:0px;fill:none;fill-opacity:1;stroke:#000000;stroke-width:0.08858268;stroke-linecap:butt;stroke-linejoin:miter;stroke-miterlimit:4;stroke-dasharray:none;stroke-opacity:1"
         x="764.34259"
         y="120.63105"
         id="text4459"><tspan
           sodipodi:role="line"
           id="tspan4461"
           x="764.34259"
           y="120.63105"
           style="font-size:40px;line-height:1.25;fill:none;stroke:#000000;stroke-width:0.08858268;stroke-miterlimit:4;stroke-dasharray:none;stroke-opacity:1"> </tspan></text>
      <text
         sodipodi:linespacing="0%"
         id="text4308"
         y="187.36705"
         x="634.98511"
         style="font-style:normal;font-variant:normal;font-weight:normal;font-stretch:normal;line-height:0%;font-family:Helvetica;-inkscape-font-specification:'Helvetica, Normal';text-align:start;letter-spacing:0px;word-spacing:0px;writing-mode:lr-tb;text-anchor:start;fill:none;fill-opacity:1;stroke:#000000;stroke-width:0.08858268;stroke-linecap:butt;stroke-linejoin:miter;stroke-miterlimit:4;stroke-dasharray:none;stroke-opacity:1"
         xml:space="preserve"><tspan
           style="font-style:normal;font-variant:normal;font-weight:normal;font-stretch:normal;font-size:15px;line-height:0%;font-family:Helvetica;-inkscape-font-specification:'Helvetica, Normal';text-align:start;writing-mode:lr-tb;text-anchor:start;fill:none;fill-opacity:1;stroke:#000000;stroke-width:0.08858268;stroke-miterlimit:4;stroke-dasharray:none;stroke-opacity:1"
           y="187.36705"
           x="634.98511"
           id="tspan4310"
           sodipodi:role="line">Température °<tspan
   style="font-style:normal;font-variant:normal;font-weight:normal;font-stretch:normal;font-size:12.5px;line-height:0%;font-family:Helvetica;-inkscape-font-specification:'Helvetica, Normal';text-align:start;writing-mode:lr-tb;text-anchor:start;fill:none;fill-opacity:1;stroke:#000000;stroke-width:0.08858268;stroke-miterlimit:4;stroke-dasharray:none;stroke-opacity:1"
   id="tspan4312">C</tspan></tspan></text>
      <path
         style="fill:none;fill-opacity:1;stroke:#000000;stroke-width:0.08858268;stroke-miterlimit:4;stroke-dasharray:none;stroke-opacity:1"
         d="m 785.19798,189.56446 c -1.85745,-1.04811 -1.79752,-0.9505 -1.79752,-2.92715 0,-1.24992 -0.0708,-1.81414 -0.25014,-1.99328 -0.13757,-0.13741 -0.43964,-0.95173 -0.67125,-1.80959 -0.39336,-1.457 -0.72298,-2.12216 -2.52079,-5.0871 -0.31668,-0.52225 -0.66652,-1.3991 -0.77743,-1.94853 -0.5358,-2.6545 1.22436,-5.53741 4.12839,-6.76184 1.00393,-0.4233 1.26074,-0.4618 3.10128,-0.46506 1.80303,-0.003 2.11321,0.0398 3.05612,0.42309 1.46973,0.59752 2.93827,1.8529 3.65261,3.12251 0.5451,0.96876 0.58547,1.15466 0.58686,2.70205 0.002,1.61457 -0.0176,1.69313 -0.6767,2.76953 -1.59436,2.60436 -2.20098,3.82282 -2.5467,5.11527 -0.20203,0.75533 -0.48261,1.56234 -0.62354,1.79337 -0.16817,0.27576 -0.25617,0.93822 -0.25617,1.92837 0,0.82956 -0.0765,1.68291 -0.17006,1.89632 -0.15872,0.36215 -2.64552,1.86497 -3.03774,1.83575 -0.0921,-0.007 -0.63066,-0.27402 -1.19722,-0.59371 z m 2.60613,-1.44593 0.43068,-0.31126 -0.84107,-0.005 c -0.46257,-0.003 -1.234,0.0414 -1.71423,0.0986 -0.78713,0.0936 -0.84014,0.12478 -0.53789,0.31651 0.52424,0.33254 2.14924,0.27239 2.66251,-0.0986 z m -0.7095,-0.74144 c 1.04519,-0.0857 1.23139,-0.14616 1.23139,-0.40021 0,-0.27905 -0.11424,-0.29271 -1.68745,-0.20163 -2.00032,0.11581 -2.14353,0.14671 -2.14353,0.46262 0,0.27371 0.57935,0.30474 2.59959,0.13922 z m 0.18243,-1.09855 c 0.88151,-0.0848 1.04896,-0.15047 1.04896,-0.4117 0,-0.25355 -0.0925,-0.29571 -0.50168,-0.22862 -0.27592,0.0452 -1.1379,0.12819 -1.91549,0.18433 -1.25513,0.0906 -1.41381,0.13777 -1.41381,0.41997 0,0.28639 0.0858,0.3089 0.86654,0.22736 0.47659,-0.0498 1.33856,-0.13588 1.91548,-0.19134 z m 0.94862,-1.19119 c 0.10062,-0.0809 -0.6453,-0.13926 -1.77866,-0.13926 -1.64703,0 -1.95198,0.0387 -1.95198,0.24694 0,0.21423 0.23565,0.23267 1.77868,0.13924 0.97826,-0.0592 1.85664,-0.17034 1.95196,-0.24692 z m 0.62106,-1.45669 c 0.11031,-0.11529 0.32403,-0.71887 0.47495,-1.34129 0.4036,-1.66446 0.95408,-3.00538 1.63722,-3.98813 1.2063,-1.73532 1.27386,-1.90702 1.27649,-3.2443 0.002,-1.03436 -0.0846,-1.42884 -0.47306,-2.15547 -1.85124,-3.46207 -6.37279,-4.28954 -9.29706,-1.70142 -1.37204,1.21429 -2.10707,3.14405 -1.77859,4.66941 0.0845,0.39209 0.61288,1.45579 1.17431,2.36379 0.76958,1.24468 1.15029,2.10527 1.54714,3.49739 0.2895,1.01555 0.63197,1.90459 0.76103,1.97563 0.41244,0.22702 4.45049,0.16174 4.67757,-0.0755 z M 772.64796,182.348 c -0.43016,-0.44963 -0.0856,-0.76929 1.90479,-1.76759 2.0397,-1.02297 2.70528,-1.20142 2.8936,-0.77572 0.20028,0.45281 -0.11012,0.70656 -2.02077,1.65193 -2.28281,1.1295 -2.48709,1.19507 -2.77762,0.89138 z m 25.23666,-0.68594 c -2.25092,-1.10872 -2.47613,-1.26638 -2.40717,-1.68526 0.0955,-0.57933 0.75751,-0.45848 2.6279,0.47964 1.87154,0.93871 2.44327,1.28922 2.44327,1.49797 0,0.15204 -0.52886,0.62059 -0.69713,0.61763 -0.0681,-0.002 -0.95319,-0.4107 -1.96687,-0.90998 z m -27.31488,-5.99846 c -0.23222,-0.20146 -0.11998,-0.81072 0.16695,-0.90624 0.15871,-0.0529 1.30214,-0.0961 2.54097,-0.0961 1.80438,0 2.3094,0.0495 2.53905,0.2487 0.32705,0.28371 0.32415,0.27372 0.17594,0.60879 -0.0938,0.21202 -0.50774,0.25032 -2.70601,0.25032 -1.4274,0 -2.64999,-0.0475 -2.7169,-0.10549 z m 26.38678,-0.15339 c -0.0631,-0.14239 -0.0312,-0.37385 0.0709,-0.51434 0.15209,-0.20955 0.6086,-0.26332 2.54129,-0.29934 2.60106,-0.0485 3.14027,0.0867 2.90545,0.72855 -0.12157,0.3323 -0.21576,0.34402 -2.76448,0.34402 -2.27459,0 -2.65442,-0.0357 -2.75315,-0.25889 z m -22.44937,-5.55742 c -1.64526,-0.84088 -2.05231,-1.11932 -2.05231,-1.40384 0,-0.69006 0.62134,-0.60563 2.56358,0.34838 2.41225,1.18488 2.69374,1.38817 2.43453,1.75804 -0.34605,0.49375 -0.83186,0.37788 -2.9458,-0.70258 z m 21.05513,0.96307 c -0.0668,-0.058 -0.12163,-0.26338 -0.12163,-0.45634 0,-0.28215 0.41544,-0.55586 2.12175,-1.39795 1.16697,-0.57592 2.22411,-1.04712 2.34922,-1.04712 0.34418,0 0.65752,0.40252 0.53279,0.68446 -0.12382,0.27998 -4.07492,2.32245 -4.49267,2.32245 -0.14731,0 -0.32257,-0.0475 -0.38946,-0.10548 z m -15.08182,-3.61478 c -0.50778,-0.53081 -2.37039,-3.46263 -2.37039,-3.73114 0,-0.15506 0.17963,-0.33137 0.39915,-0.39181 0.50319,-0.13856 0.69407,0.0612 2.06426,2.16057 0.80764,1.23744 1.01285,1.67699 0.87292,1.86979 -0.25474,0.35095 -0.67977,0.3917 -0.96594,0.0926 z m 10.9692,-0.0417 c -0.14953,-0.2424 0.0521,-0.65875 1.05803,-2.18566 1.041,-1.58004 1.31327,-1.88623 1.67738,-1.88623 0.78543,0 0.62231,0.64861 -0.6368,2.53214 -1.20351,1.80036 -1.70902,2.17125 -2.09861,1.53975 z m -5.48879,-1.29196 c -0.22566,-0.36575 -0.24991,-4.11302 -0.0285,-4.41592 0.085,-0.11641 0.35061,-0.18763 0.59009,-0.15826 0.43325,0.0531 0.43569,0.0648 0.48625,2.33604 0.0384,1.71998 -0.006,2.31426 -0.18243,2.41101 -0.38038,0.20941 -0.66451,0.15264 -0.86531,-0.17287 z"
         id="path4314"
         inkscape:connector-curvature="0" />
      <path
         inkscape:connector-curvature="0"
         id="path4316"
         d="m 783.22587,349.49084 c -2.3393,-0.2475 -4.65319,-1.32166 -6.34178,-2.94385 -1.38024,-1.32596 -2.29554,-2.91767 -2.72461,-4.73792 -0.16855,-0.71507 -0.23041,-2.34517 -0.11886,-3.13137 0.37133,-2.61671 1.93246,-5.03634 4.24899,-6.58564 0.82251,-0.5501 2.07849,-1.13433 2.43866,-1.13433 1.04633,0 1.64179,1.11541 0.97952,1.83493 -0.11015,0.11963 -0.44708,0.33082 -0.74882,0.46926 -2.65109,1.21655 -4.34118,3.57159 -4.49383,6.26183 -0.17149,3.02303 1.66035,5.78415 4.70191,7.08717 1.57997,0.67692 3.53738,0.85105 5.24897,0.46691 3.2883,-0.73795 5.66903,-3.1563 6.15244,-6.24979 0.0451,-0.29084 0.0625,-0.87777 0.0387,-1.30429 -0.15261,-2.69024 -1.84272,-5.04528 -4.49376,-6.26183 -0.30175,-0.13844 -0.63873,-0.34963 -0.74884,-0.46926 -0.66226,-0.71952 -0.0669,-1.83493 0.9795,-1.83493 0.38826,0 1.65992,0.6079 2.57078,1.22892 2.23677,1.52505 3.76073,3.9299 4.11333,6.49093 0.11552,0.839 0.058,2.39184 -0.11564,3.13149 -0.42692,1.81662 -1.34387,3.41176 -2.72233,4.7361 -2.32719,2.23563 -5.57829,3.30399 -8.96426,2.94567 z m 3.15887,-0.74247 c 3.56497,-0.66041 6.38671,-2.92228 7.50616,-6.01677 0.37955,-1.04924 0.47607,-1.63747 0.47422,-2.8906 -0.003,-1.93257 -0.5478,-3.53011 -1.75251,-5.13702 -0.83382,-1.11226 -2.48998,-2.39774 -3.79008,-2.94189 -0.52109,-0.2181 -0.77417,-0.1855 -0.96429,0.12417 -0.17782,0.28964 -0.0233,0.50638 0.54884,0.77047 0.89274,0.41199 1.56093,0.86131 2.34229,1.57512 0.83596,0.76364 1.25595,1.29695 1.73135,2.19838 0.63222,1.19884 0.8941,2.42746 0.82356,3.8644 -0.12308,2.50867 -1.44867,4.71811 -3.71497,6.19195 -3.77411,2.4545 -9.21116,1.69706 -12.00901,-1.67301 -2.05262,-2.47241 -2.42373,-5.7428 -0.957,-8.43295 0.46404,-0.85116 0.84466,-1.35396 1.51195,-1.99728 0.69883,-0.67375 1.52097,-1.24505 2.37877,-1.65308 0.72956,-0.34697 0.88796,-0.53795 0.70004,-0.844 -0.19013,-0.30967 -0.4432,-0.34227 -0.96428,-0.12417 -0.79346,0.33211 -1.96958,1.1031 -2.69489,1.76663 -1.39176,1.27319 -2.2866,2.80515 -2.71279,4.64426 -0.16617,0.71696 -0.18376,2.52173 -0.0325,3.28954 0.52571,2.66114 2.3574,4.98343 5.02191,6.3672 0.91288,0.47406 2.53036,0.92967 3.68624,1.0384 0.77067,0.0727 2.13711,0.0149 2.86654,-0.11975 z m -2.38682,-7.23293 c -0.18679,-0.087 -0.41102,-0.24823 -0.49834,-0.3577 -0.15726,-0.19721 -0.15874,-0.25448 -0.15874,-6.11089 0,-5.86093 7e-4,-5.91349 0.15899,-6.10651 0.30214,-0.36996 0.54861,-0.48542 1.03631,-0.48542 0.48774,0 0.7342,0.11546 1.03635,0.48542 0.15761,0.193 0.15899,0.2457 0.15899,6.09405 l 0,5.89937 -0.18515,0.23738 c -0.19818,0.25394 -0.69292,0.49882 -1.01313,0.50137 -0.10761,6.1e-4 -0.34853,-0.0696 -0.53528,-0.15707 z m 0.94309,-0.70137 c 0.12612,-0.13331 0.13495,-0.51186 0.13495,-5.76722 0,-5.36107 -0.009,-5.63208 -0.14218,-5.78512 -0.19337,-0.21827 -0.60189,-0.21827 -0.79523,0 -0.13555,0.15304 -0.14221,0.4234 -0.14221,5.76232 0,3.82881 0.0264,5.64616 0.082,5.7421 0.17079,0.29176 0.6089,0.3161 0.86254,0.0481 z"
         style="fill:none;fill-opacity:1;stroke:#000000;stroke-width:0.08858268;stroke-miterlimit:4;stroke-dasharray:none;stroke-opacity:1" />
      <text
         xml:space="preserve"
         style="font-style:normal;font-variant:normal;font-weight:normal;font-stretch:normal;line-height:0%;font-family:Helvetica;-inkscape-font-specification:'Helvetica, Normal';text-align:start;letter-spacing:0px;word-spacing:0px;writing-mode:lr-tb;text-anchor:start;fill:none;fill-opacity:1;stroke:#000000;stroke-width:0.08858268;stroke-linecap:butt;stroke-linejoin:miter;stroke-miterlimit:4;stroke-dasharray:none;stroke-opacity:1"
         x="611.99115"
         y="354.9679"
         id="text4318"
         sodipodi:linespacing="0%"><tspan
           sodipodi:role="line"
           id="tspan4320"
           x="611.99115"
           y="354.9679"
           style="font-style:normal;font-variant:normal;font-weight:normal;font-stretch:normal;font-size:15px;line-height:0%;font-family:Helvetica;-inkscape-font-specification:'Helvetica, Normal';text-align:start;writing-mode:lr-tb;text-anchor:start;fill:none;fill-opacity:1;stroke:#000000;stroke-width:0.08858268;stroke-miterlimit:4;stroke-dasharray:none;stroke-opacity:1">min</tspan></text>
      <text
         sodipodi:linespacing="0%"
         id="text4322"
         y="355.98984"
         x="728.49414"
         style="font-style:normal;font-variant:normal;font-weight:normal;font-stretch:normal;line-height:0%;font-family:Helvetica;-inkscape-font-specification:'Helvetica, Normal';text-align:start;letter-spacing:0px;word-spacing:0px;writing-mode:lr-tb;text-anchor:start;fill:none;fill-opacity:1;stroke:#000000;stroke-width:0.08858268;stroke-linecap:butt;stroke-linejoin:miter;stroke-miterlimit:4;stroke-dasharray:none;stroke-opacity:1"
         xml:space="preserve"><tspan
           style="font-style:normal;font-variant:normal;font-weight:normal;font-stretch:normal;font-size:15px;line-height:0%;font-family:Helvetica;-inkscape-font-specification:'Helvetica, Normal';text-align:start;writing-mode:lr-tb;text-anchor:start;fill:none;fill-opacity:1;stroke:#000000;stroke-width:0.08858268;stroke-miterlimit:4;stroke-dasharray:none;stroke-opacity:1"
           y="355.98984"
           x="728.49414"
           id="tspan4324"
           sodipodi:role="line">Max</tspan></text>
      <path
         inkscape:connector-curvature="0"
         id="path5961"
         transform="translate(0,-10.629921)"
         d="m 605.64648,134.72461 0,10.63086 -12.52734,0 -12.5293,0 0,23.85351 0,23.85352 -10.6289,0 0,48.91016 10.6289,0 0,47.70703 -10.6289,0 0,48.91211 10.6289,0 0,23.85351 0,23.85352 12.5293,0 12.52734,0 0,10.63086 26.25977,0 0,-10.63086 25.05469,0 0,10.63086 26.25976,0 0,-10.63086 25.05469,0 0,10.63086 26.25977,0 0,-10.63086 25.05468,0 0,10.63086 26.26172,0 0,-10.63086 12.52735,0 12.52734,0 0,-23.85352 0,-23.85351 10.62891,0 0,-48.91211 -10.62891,0 0,-47.70703 10.62891,0 0,-48.91016 -10.62891,0 0,-23.85352 0,-23.85351 -12.52734,0 -12.52735,0 0,-10.63086 -26.26172,0 0,10.63086 -25.05468,0 0,-10.63086 -26.25977,0 0,10.63086 -25.05469,0 0,-10.63086 -26.25976,0 0,10.63086 -25.05469,0 0,-10.63086 -26.25977,0 z m 44.72266,72.67187 71.54102,0 0,9.39258 36.13086,0 0,132.96485 -143.80469,0 0,-132.96485 36.13281,0 0,-9.39258 z"
         style="fill:none;stroke:#000000;stroke-width:0.08858268;stroke-linecap:butt;stroke-linejoin:miter;stroke-miterlimit:4;stroke-dasharray:none;stroke-opacity:1" />
    </g>
    <path
       inkscape:connector-curvature="0"
       d="m 748.79704,26.890185 10.6299,0 0,13.12989 0,13.1299 -10.6299,0 0,25.0551 10.6299,0 0,26.259905 -10.6299,0 0,25.0551 10.6299,0 0,26.25981 -10.6299,0 0,25.0551 10.6299,0 0,26.2599 -10.6299,0 0,25.0551 10.6299,0 0,13.1299 0,13.13 -10.6299,0 0,10.6299 -9.5741,0 -9.574,0 0,-10.6299 -17.9433,0 0,10.6299 -19.148,0 0,-10.6299 -17.9433,0 0,10.6299 -9.574,0 -9.5741,0 0,-10.6299 -10.6299,0 0,-13.13 0,-13.1299 10.6299,0 0,-25.0551 -10.6299,0 0,-26.2599 10.6299,0 0,-25.0551 -10.6299,0 0,-26.25981 10.6299,0 0,-25.0551 -10.6299,0 0,-26.259905 10.6299,0 0,-25.0551 -10.6299,0 0,-13.1299 0,-13.12989 10.6299,0 0,-10.63001 9.5741,0 9.574,0 0,10.63001 17.9433,0 0,-10.63001 19.148,0 0,10.63001 17.9433,0 0,-10.63001 9.574,0 9.5741,0 0,10.63001"
       id="box-longside1"
       style="fill:none;stroke:#000000;stroke-width:0.08858268;stroke-linecap:butt;stroke-linejoin:miter;stroke-miterlimit:4;stroke-dasharray:none;stroke-opacity:1" />
    <path
       inkscape:connector-curvature="0"
       d="m 800.2709,21.156275 12.52756,0 12.52756,0 0,-10.62992 26.25984,0 0,10.62992 25.05512,0 0,-10.62992 26.25984,0 0,10.62992 25.05512,0 0,-10.62992 26.25984,0 0,10.62992 25.05512,0 0,-10.62992 26.2598,0 0,10.62992 12.5276,0 12.5276,0 0,23.85354 0,23.85354 10.6299,0 0,48.911825 -10.6299,0 0,47.70708 10.6299,0 0,48.91181 -10.6299,0 0,23.85355 0,23.85354 -12.5276,0 -12.5276,0 0,10.62992 -26.2598,0 0,-10.62992 -25.05512,0 0,10.62992 -26.25984,0 0,-10.62992 -25.05512,0 0,10.62992 -26.25984,0 0,-10.62992 -25.05512,0 0,10.62992 -26.25984,0 0,-10.62992 -12.52756,0 -12.52756,0 0,-23.85354 0,-23.85355 -10.62992,0 0,-48.91181 10.62992,0 0,-47.70708 -10.62992,0 0,-48.911825 10.62992,0 0,-23.85354 0,-23.85354"
       id="path5964"
       style="fill:none;stroke:#000000;stroke-width:0.08858268;stroke-linecap:butt;stroke-linejoin:miter;stroke-miterlimit:4;stroke-dasharray:none;stroke-opacity:1" />
    <path
       inkscape:connector-curvature="0"
       d="m 1173.7047,26.05234 10.6299,0 0,13.12992 0,13.12992 -10.6299,0 0,25.05512 10.6299,0 0,26.25984 -10.6299,0 0,25.05512 10.6299,0 0,26.25984 -10.6299,0 0,25.05512 10.6299,0 0,26.25985 -10.6299,0 0,25.05511 10.6299,0 0,13.12993 0,13.12992 -10.6299,0 0,10.62992 -9.574,0 -9.5741,0 0,-10.62992 -17.9433,0 0,10.62992 -19.148,0 0,-10.62992 -17.9433,0 0,10.62992 -9.574,0 -9.574,0 0,-10.62992 -10.63,0 0,-13.12992 0,-13.12993 10.63,0 0,-25.05511 -10.63,0 0,-26.25985 10.63,0 0,-25.05512 -10.63,0 0,-26.25984 10.63,0 0,-25.05512 -10.63,0 0,-26.25984 10.63,0 0,-25.05512 -10.63,0 0,-13.12992 0,-13.12992 10.63,0 0,-10.62992 9.574,0 9.574,0 0,10.62992 17.9433,0 0,-10.62992 19.148,0 0,10.62992 17.9433,0 0,-10.62992 9.5741,0 9.574,0 0,10.62992"
       id="box-longside2"
       style="fill:none;stroke:#000000;stroke-width:0.08858268;stroke-linecap:butt;stroke-linejoin:miter;stroke-miterlimit:4;stroke-dasharray:none;stroke-opacity:1" />
    <g
       id="g6259"
       transform="translate(-508.73299,-118.51166)">
      <path
         inkscape:connector-curvature="0"
         id="box-endface2"
         transform="translate(0,-10.629921)"
         d="m 861.3418,134.72461 0,10.63086 -8.97266,0 -8.9707,0 -10.63086,0 0,24.45508 0,24.45507 10.63086,0 0,47.70704 -10.63086,0 0,48.91211 10.63086,0 0,47.70703 -10.63086,0 0,24.45703 0,24.45508 10.63086,0 8.9707,0 8.97266,0 0,10.63086 19.14648,0 0,-10.63086 17.94336,0 0,10.63086 19.14844,0 0,-10.63086 8.97265,0 8.97071,0 10.63086,0 0,-24.45508 0,-24.45703 -10.63086,0 0,-47.70703 10.63086,0 0,-48.91211 -10.63086,0 0,-47.70704 10.63086,0 0,-24.45507 0,-24.45508 -10.63086,0 -8.97071,0 -8.97265,0 0,-10.63086 -19.14844,0 0,10.63086 -17.94336,0 0,-10.63086 -19.14648,0 z m 5.89062,27.97461 a 2.6574802,2.6574802 0 0 1 2.6582,2.6582 2.6574802,2.6574802 0 0 1 -2.6582,2.65625 2.6574802,2.6574802 0 0 1 -2.6582,-2.65625 2.6574802,2.6574802 0 0 1 2.6582,-2.6582 z m -10.83398,9.14648 22.48437,0 0,39.85742 -22.48437,0 0,-39.85742 z m 10.57812,42.97266 a 2.6574802,2.6574802 0 0 1 2.65821,2.6582 2.6574802,2.6574802 0 0 1 -2.65821,2.65625 2.6574802,2.6574802 0 0 1 -2.65625,-2.65625 2.6574802,2.6574802 0 0 1 2.65625,-2.6582 z m 20.73438,36.38086 3.83203,0 0,30.46094 -3.83203,0 0,-30.46094 z m -11.42383,6.89648 4.01367,0 0,17.62891 -4.01367,0 0,-17.62891 z m 22.55859,0 3.9375,0 0,17.375 -3.9375,0 0,-17.375 z m -33.36328,4.08789 3.50196,0 0,9.19922 -3.50196,0 0,-9.19922 z m 44.71094,0.27149 3.24609,0 0,9.00195 -3.24609,0 0,-9.00195 z m -43.2168,57.01172 a 2.6574802,2.6574802 0 0 1 2.65821,2.65625 2.6574802,2.6574802 0 0 1 -2.65821,2.6582 2.6574802,2.6574802 0 0 1 -2.65625,-2.6582 2.6574802,2.6574802 0 0 1 2.65625,-2.65625 z m -10.83203,9.14648 22.48242,0 0,39.85742 -22.48242,0 0,-39.85742 z m 10.57617,42.97266 a 2.6574802,2.6574802 0 0 1 2.65821,2.6582 2.6574802,2.6574802 0 0 1 -2.65821,2.65625 2.6574802,2.6574802 0 0 1 -2.65625,-2.65625 2.6574802,2.6574802 0 0 1 2.65625,-2.6582 z"
         style="fill:none;stroke:#000000;stroke-width:0.08858268;stroke-linecap:butt;stroke-linejoin:miter;stroke-miterlimit:4;stroke-dasharray:none;stroke-opacity:1" />
      <rect
         style="opacity:0.59100001;fill:none;fill-opacity:1;stroke:#000000;stroke-width:0.08858268;stroke-miterlimit:4;stroke-dasharray:none;stroke-opacity:1"
         id="rect6066"
         width="22.483034"
         height="39.856289"
         x="856.39923"
         y="161.21642" />
      <rect
         y="317.98373"
         x="856.14374"
         height="39.856289"
         width="22.483034"
         id="rect6072"
         style="opacity:0.59100001;fill:none;fill-opacity:1;stroke:#000000;stroke-width:0.08858268;stroke-miterlimit:4;stroke-dasharray:none;stroke-opacity:1" />
      <text
         sodipodi:linespacing="0%"
         id="text6082"
         y="168.97185"
         x="882.99884"
         style="font-style:normal;font-variant:normal;font-weight:normal;font-stretch:normal;font-size:10px;line-height:0%;font-family:Helvetica;-inkscape-font-specification:'Helvetica, Normal';text-align:start;letter-spacing:0px;word-spacing:0px;writing-mode:lr-tb;text-anchor:start;fill:none;fill-opacity:1;stroke:#000000;stroke-width:0.08858268;stroke-linecap:butt;stroke-linejoin:miter;stroke-miterlimit:4;stroke-dasharray:none;stroke-opacity:1"
         xml:space="preserve"><tspan
           style="font-style:normal;font-variant:normal;font-weight:normal;font-stretch:normal;font-size:10px;line-height:0%;font-family:Helvetica;-inkscape-font-specification:'Helvetica, Normal';text-align:start;writing-mode:lr-tb;text-anchor:start;fill:none;fill-opacity:1;stroke:#000000;stroke-width:0.08858268;stroke-miterlimit:4;stroke-dasharray:none;stroke-opacity:1"
           y="168.97185"
           x="882.99884"
           id="tspan6084"
           sodipodi:role="line"> ON</tspan></text>
      <text
         xml:space="preserve"
         style="font-style:normal;font-variant:normal;font-weight:normal;font-stretch:normal;font-size:10px;line-height:0%;font-family:Helvetica;-inkscape-font-specification:'Helvetica, Normal';text-align:start;letter-spacing:0px;word-spacing:0px;writing-mode:lr-tb;text-anchor:start;fill:none;fill-opacity:1;stroke:#000000;stroke-width:0.08858268;stroke-linecap:butt;stroke-linejoin:miter;stroke-miterlimit:4;stroke-dasharray:none;stroke-opacity:1"
         x="881.78766"
         y="199.63054"
         id="text6086"
         sodipodi:linespacing="0%"><tspan
           sodipodi:role="line"
           id="tspan6088"
           x="881.78766"
           y="199.63054"
           style="font-style:normal;font-variant:normal;font-weight:normal;font-stretch:normal;font-size:10px;line-height:0%;font-family:Helvetica;-inkscape-font-specification:'Helvetica, Normal';text-align:start;writing-mode:lr-tb;text-anchor:start;fill:none;fill-opacity:1;stroke:#000000;stroke-width:0.08858268;stroke-miterlimit:4;stroke-dasharray:none;stroke-opacity:1"> OFF</tspan></text>
      <text
         xml:space="preserve"
         style="font-style:normal;font-variant:normal;font-weight:normal;font-stretch:normal;font-size:10px;line-height:0%;font-family:Helvetica;-inkscape-font-specification:'Helvetica, Normal';text-align:start;letter-spacing:0px;word-spacing:0px;writing-mode:lr-tb;text-anchor:start;fill:none;fill-opacity:1;stroke:#000000;stroke-width:0.08858268;stroke-linecap:butt;stroke-linejoin:miter;stroke-miterlimit:4;stroke-dasharray:none;stroke-opacity:1"
         x="882.48792"
         y="327.88605"
         id="text6090"
         sodipodi:linespacing="0%"><tspan
           sodipodi:role="line"
           id="tspan6092"
           x="882.48792"
           y="327.88605"
           style="font-style:normal;font-variant:normal;font-weight:normal;font-stretch:normal;font-size:10px;line-height:0%;font-family:Helvetica;-inkscape-font-specification:'Helvetica, Normal';text-align:start;writing-mode:lr-tb;text-anchor:start;fill:none;fill-opacity:1;stroke:#000000;stroke-width:0.08858268;stroke-miterlimit:4;stroke-dasharray:none;stroke-opacity:1"> ON</tspan></text>
      <text
         sodipodi:linespacing="0%"
         id="text6094"
         y="358.03375"
         x="881.78766"
         style="font-style:normal;font-variant:normal;font-weight:normal;font-stretch:normal;font-size:10px;line-height:0%;font-family:Helvetica;-inkscape-font-specification:'Helvetica, Normal';text-align:start;letter-spacing:0px;word-spacing:0px;writing-mode:lr-tb;text-anchor:start;fill:none;fill-opacity:1;stroke:#000000;stroke-width:0.08858268;stroke-linecap:butt;stroke-linejoin:miter;stroke-miterlimit:4;stroke-dasharray:none;stroke-opacity:1"
         xml:space="preserve"><tspan
           style="font-style:normal;font-variant:normal;font-weight:normal;font-stretch:normal;font-size:10px;line-height:0%;font-family:Helvetica;-inkscape-font-specification:'Helvetica, Normal';text-align:start;writing-mode:lr-tb;text-anchor:start;fill:none;fill-opacity:1;stroke:#000000;stroke-width:0.08858268;stroke-miterlimit:4;stroke-dasharray:none;stroke-opacity:1"
           y="358.03375"
           x="881.78766"
           id="tspan6096"
           sodipodi:role="line"> OFF</tspan></text>
      <rect
         style="opacity:0.59100001;fill:none;fill-opacity:1;stroke:#000000;stroke-width:0.08858268;stroke-miterlimit:4;stroke-dasharray:none;stroke-opacity:1"
         id="rect6151"
         width="3.5020156"
         height="9.1976051"
         x="865.48236"
         y="251.55453" />
      <rect
         style="opacity:0.59100001;fill:none;fill-opacity:1;stroke:#000000;stroke-width:0.08858268;stroke-miterlimit:4;stroke-dasharray:none;stroke-opacity:1"
         id="rect6153"
         width="4.0129933"
         height="17.628742"
         x="876.28772"
         y="247.46672" />
      <rect
         style="opacity:0.59100001;fill:none;fill-opacity:1;stroke:#000000;stroke-width:0.08858268;stroke-miterlimit:4;stroke-dasharray:none;stroke-opacity:1"
         id="rect6155"
         width="3.8323355"
         height="30.462526"
         x="887.70996"
         y="240.56851" />
      <rect
         style="opacity:0.59100001;fill:none;fill-opacity:1;stroke:#000000;stroke-width:0.08858268;stroke-miterlimit:4;stroke-dasharray:none;stroke-opacity:1"
         id="rect6157"
         width="3.9381623"
         height="17.373253"
         x="898.84558"
         y="247.46672" />
      <rect
         style="opacity:0.59100001;fill:none;fill-opacity:1;stroke:#000000;stroke-width:0.08858268;stroke-miterlimit:4;stroke-dasharray:none;stroke-opacity:1"
         id="rect6159"
         width="3.2465265"
         height="9.0014486"
         x="910.19299"
         y="251.82552" />
    </g>
    <g
       id="g6277"
       transform="translate(-349.75393,-511.62351)">
      <path
         inkscape:connector-curvature="0"
         id="box-endface1"
         transform="translate(0,-10.629921)"
         d="m 861.3418,532.7793 0,10.63086 -8.97266,0 -8.9707,0 -10.63086,0 0,24.45507 0,24.45704 10.63086,0 0,47.70703 -10.63086,0 0,48.91015 10.63086,0 0,47.70899 -10.63086,0 0,24.45508 0,24.45507 10.63086,0 8.9707,0 8.97266,0 0,10.63086 19.14648,0 0,-10.63086 17.94336,0 0,10.63086 19.14844,0 0,-10.63086 8.97265,0 8.97071,0 10.63086,0 0,-24.45507 0,-24.45508 -10.63086,0 0,-47.70899 10.63086,0 0,-48.91015 -10.63086,0 0,-47.70703 10.63086,0 0,-24.45704 0,-24.45507 -10.63086,0 -8.97071,0 -8.97265,0 0,-10.63086 -19.14844,0 0,10.63086 -17.94336,0 0,-10.63086 -19.14648,0 z m 26.36718,116.47461 3.83399,0 0,30.46093 -3.83399,0 0,-30.46093 z m -11.42187,6.89843 4.01367,0 0,17.62696 -4.01367,0 0,-17.62696 z m 22.55859,0 3.9375,0 0,17.37305 -3.9375,0 0,-17.37305 z m -33.36328,4.08789 3.50196,0 0,9.19727 -3.50196,0 0,-9.19727 z m 44.71094,0.26954 3.24609,0 0,9.00195 -3.24609,0 0,-9.00195 z"
         style="fill:none;stroke:#000000;stroke-width:0.08858268;stroke-linecap:butt;stroke-linejoin:miter;stroke-miterlimit:4;stroke-dasharray:none;stroke-opacity:1" />
      <rect
         y="649.60938"
         x="865.48224"
         height="9.1976051"
         width="3.5020156"
         id="rect6195"
         style="opacity:0.59100001;fill:none;fill-opacity:1;stroke:#000000;stroke-width:0.08858268;stroke-miterlimit:4;stroke-dasharray:none;stroke-opacity:1" />
      <rect
         y="645.52155"
         x="876.2876"
         height="17.628742"
         width="4.0129933"
         id="rect6197"
         style="opacity:0.59100001;fill:none;fill-opacity:1;stroke:#000000;stroke-width:0.08858268;stroke-miterlimit:4;stroke-dasharray:none;stroke-opacity:1" />
      <rect
         y="638.62335"
         x="887.70984"
         height="30.462526"
         width="3.8323355"
         id="rect6199"
         style="opacity:0.59100001;fill:none;fill-opacity:1;stroke:#000000;stroke-width:0.08858268;stroke-miterlimit:4;stroke-dasharray:none;stroke-opacity:1" />
      <rect
         y="645.52155"
         x="898.84546"
         height="17.373253"
         width="3.9381623"
         id="rect6201"
         style="opacity:0.59100001;fill:none;fill-opacity:1;stroke:#000000;stroke-width:0.08858268;stroke-miterlimit:4;stroke-dasharray:none;stroke-opacity:1" />
      <rect
         y="649.88031"
         x="910.19287"
         height="9.0014486"
         width="3.2465265"
         id="rect6203"
         style="opacity:0.59100001;fill:none;fill-opacity:1;stroke:#000000;stroke-width:0.08858268;stroke-miterlimit:4;stroke-dasharray:none;stroke-opacity:1" />
    </g>
  </g>
</svg>
